<svg xmlns="http://www.w3.org/2000/svg" version="1.1" xmlns:xlink="http://www.w3.org/1999/xlink" xmlns:svgjs="http://svgjs.dev/svgjs" viewBox="0 0 800 800"><defs><linearGradient x1="50%" y1="0%" x2="50%" y2="100%" id="ssscribble-grad"><stop stop-color="#fec268" stop-opacity="1" offset="0%"></stop><stop stop-color="#FFEDD1" stop-opacity="1" offset="100%"></stop></linearGradient></defs><g fill="none" stroke-width="1.5" stroke="url(#ssscribble-grad)" stroke-linecap="round"><path d="M1100.03 577.71C1078.37 610.57 978.24 656.36 840.91 707.62 712.35 750.59 632.98 782.13 619.2 784.75 669.57 759.44 757.14 693.97 849.49 599.43 929.1 523.5 968.37 489.92 963.49 542.32 920.24 679.41 846.9 862.44 759.79 1004.1 662.64 1021.32 571.53 900.13 492.99 718.07 419.38 625.29 359.39 703.9 311.01 913.68 265.38 1082.41 226.79 1062.01 193.93 860.93 161.06 674.38 135.5 676.24 119.15 848.77 105.55 1036.5 105.77 1070.33 122.43 932.55 144.03 725.15 181.01 592.56 227.52 598.73 263.99 721.34 290.15 864.29 290.33 944.66 252.14 934.3 173.91 837.71 60.08 703.53 -66.47 558.9 -183.51 446.3 -257.98 373.21 -268.28 329.81 -207.61 310.29 -91.73 296.91 32.9 291.32 126.37 275.37 148.03 242.52 83.16 209.66 -36.49 161.44 -162.16 105.06 -254.79 56.47 -277.49 16.2 -228.06 2.64 -123.23 18.77 6.41 77.25 127.28 171.23 219.79 254.77 268.43 304.2 276.55 271.51 248.64 148.09 203.32 -33.8 156.92 -190.65 108.04 -231.06 75.3 -127.96 61.28 55.33 55.45 169.05 65.54 116.56 86.88 -83.82 111.44 -269.06 141.48 -277.63 174.34 -91.12 207.2 109.98 241.33 137.1 278.74 -18.91 319.37 -216.02 369.06 -275.97 431.84 -159.13 502.81 47 589.66 197.68 689.19 214.71 786.23 107.29 878.73 -36.77 949.71 -130.81 984.66 -140.16 974.98 -59.43 916.69 67.13 830.03 212.31 729.86 331.91 649.11 414.17 623.77 468.51 665.17 496.76 770.49 515.76 908.84 526.48 1035.15 544.85 1100.03 577.71Q1100.03 577.71 1100.03 577.71" opacity="0.70"></path><path d="M1066.03 609.85C1048.81 640.36 961.96 660.83 837.47 666.76 711.64 666.68 619.6 643.05 580.26 593.4 598.36 541.16 659.13 480.36 738.92 437.29 824.26 444.87 887.53 514.64 918.43 650.74 919.25 810.2 887.64 945.66 834.05 989.07 763.14 917.62 686.64 762.82 613.53 619.59 538.51 597.34 473.14 723.34 419.51 926.47 366.77 1058.99 324.85 1017.97 294.34 826.93 263.82 648.57 246.16 628.1 241.35 767.76 237.44 956.71 247.3 1044.39 269.44 976.35 289.67 799.28 315.92 624.2 339.8 539.98 346.37 572.66 334.17 683.76 293.35 802.68 222.46 887.52 123.01 897.54 5.9 843.63 -105.65 742.28 -193.79 626.22 -234.25 520.96 -217.29 421.87 -142.61 347.63 -28.56 294.25 84.15 247.44 164.81 211.03 182.03 180.52 124.3 150 17.08 126.83 -100.98 116.08 -198.77 111.91 -241.79 130.64 -222.1 176.85 -148.06 229.23 -38.65 295.03 78.97 349.37 187.46 356.26 267.14 302.46 313.05 177.63 326.01 18.73 313.93 -128.55 289.15 -193.03 251.75 -140.6 218.59 7.09 196.33 161.8 175.53 207.51 169 102.5 176.26 -98.21 185.24 -249.68 205.42 -235.45 235.93 -57.12 266.45 133.94 305.85 181.19 354.41 60.48 404.7 -130.86 466.73 -239.52 540.42 -194.95 615.56 -29.36 698.97 152.8 783.4 256.05 855.2 244.43 911.1 145.17 938.13 25.7 932.21 -70.41 888.71 -96.39 811.99 -56.96 726.13 33.12 644.08 144.16 592.41 249.28 595.09 351.82 655.48 430.96 765.05 488.59 894.9 540.21 1008.3 579.33 1066.03 609.85Q1066.03 609.85 1066.03 609.85" opacity="0.55"></path><path d="M1032.03 426.54C1018.82 454.71 944.7 462.02 833.93 450.14 714.43 439.17 615.4 413.41 555.95 383.16 544.08 371.04 574.5 379.51 632.02 427.76 707.79 517.35 778.12 647.08 830.15 792.42 864.51 904.12 871.3 949.18 854.69 897.8 820.17 775.8 772.34 632.96 719.46 552.76 660.27 596.2 604.15 751.04 555.58 934.97 506.21 1030.94 466.5 973 438.33 792.93 410.16 623.79 394.88 584.38 391.13 689.75 386.58 866.62 391.46 991.06 401.83 991.62 405.9 872.67 407.35 700.43 398.45 558.83 371.66 496.69 324.42 526.4 253.15 612.18 164.21 722.66 60.48 805.5 -44.61 840.81 -131.46 832.23 -187.13 782.84 -195.91 713.87 -157.11 628.91 -74.11 549.18 34.51 484.28 134.41 419.32 202.82 372 216.03 343.82 165.1 315.66 70.22 307.97 -38.63 319.81 -166.66 345.83 -118.74 417.89 24.67 384.59 133.3 305.88 229.05 182.61 302.19 35.22 351.56 -87.49 375.97 -150.61 382.28 -117.82 342.28 108.13 329.46 -209.05 365.2 -23.12 393.37 156.96 433.23 220.67 483.47 135.6 533.71 -37.45 593.67 -176.29 660.13 -199.1 722.61 -98.27 784.8 69.82 838.52 221.15 875.62 301.88 891.64 290.21 879.19 215.43 842.97 107.01 780.62 17.71 701.31 -28.46 628.36 -33.3 571.34 4.6 549.56 65.54 576.74 144.6 650.99 221.6 760.78 285.68 880.51 350.69 981.1 398.38 1032.03 426.54Q1032.03 426.54 1032.03 426.54" opacity="0.50"></path><path d="M998.03 215.97C988.4 241.79 926.33 256.76 829.81 265.24 719.64 278.81 619.1 296.19 545.81 328.23 508.76 379.14 509.2 457.24 539.14 563.94 593.81 678.48 655.58 793.44 712.11 878.15 763.64 904.5 796.7 860.58 810.34 751.86 810.6 627.52 794.94 532.71 768.82 523.55 735.32 618.1 698.34 782.2 662.57 937.31 625.09 998.16 592.33 927.13 566.51 758.93 540.69 600.01 523.03 545.29 511.82 616.75 498.9 770.73 488.91 912.9 477.66 970.54 459.04 922.16 432.18 791.49 392.12 639.17 338.69 513.41 268.56 454.67 183.19 462.76 92.82 525.93 0.45 609.28 -81.1 683.32 -137.93 744.45 -161.53 771.76 -143.4 769.66 -89.03 748.11 -3.19 711.74 97.01 672.26 183.57 628.02 240.4 590.61 250.03 564.79 205.55 538.96 122.75 525.95 24.39 521.5 -71.99 512.29 -140.08 501.69 -167.93 478.51 -155.09 435.87 -103.05 366.06 -24.74 265.14 70.14 151.3 165.88 30.89 251.3 -66.13 324.56 -108.08 378.64 -79.98 415.08 18.88 436.62 144.32 447.24 251.85 452.99 281.32 452.18 204.78 453.62 47.94 461.25 -116 467.63 -197.46 482.96 -148.02 508.78 10.86 534.6 179.08 569.69 255.39 612 204.54 653.06 59.4 698.59 -90 744.15 -165.65 783.14 -137.59 815.04 -19.62 833.29 131.59 836.65 267.2 819.64 341.74 780.22 349.24 728.64 298.37 663.51 220.48 595.51 145.73 544.08 78.82 515.2 43.24 521.28 37.08 568.06 49.78 650.85 79.37 757.2 114.49 865.52 154.7 953.55 190.15 998.03 215.97Q998.03 215.97 998.03 215.97" opacity="0.34"></path><path d="M964.03 194.32C957.54 217.79 906.71 248.41 824.57 288.19 726.1 331.58 629.02 389.94 548.47 465.5 492.8 545.86 467.15 638.85 468.88 732.96 496.12 806.5 537.81 851.42 584.09 848.83 635.26 799 678.01 705.01 708.29 591.63 732.08 506.34 741.84 477.68 739.58 531.62 731.67 656.51 715.84 811.72 695.34 931.85 673.12 960.63 649.47 880.44 626 724.94 602.53 577.17 580.35 510.96 558.3 550.59 534.53 674.11 507.66 815.47 474.9 911.36 436.48 929.89 388.06 863.41 328.1 743.84 261.64 605.01 185.19 490.51 103.26 421.91 26.22 402.83 -43.29 426.23 -94.98 471.83 -121.15 534.47 -116.55 589.47 -78.09 627.3 -14.73 658.32 68.97 669.75 158.38 665.5 231.47 657.31 277.54 640.04 284.03 616.57 245.66 593.1 174.58 564.54 87.62 528.46 -3.03 488.45 -75.75 434.31 -119.15 362.62 -131.46 284.11 -109.05 190.46 -59.03 91.64 12.19 9.86 93.97 -47.23 176.07 -58.91 256.73 -21.07 326.66 65.58 383.56 179.97 430.91 275.1 466.55 320.54 493.59 284.8 514.46 171.7 531.95 16.98 549.37 -115.58 565.14 -164.28 584.08 -102.82 607.55 44.94 631.02 200.44 657.92 285.39 686.41 265.67 713.25 154.59 738.46 12.74 758.27 -94.93 771.92 -131.67 774.94 -81.96 763.77 27.76 743.05 165.58 706.82 287.4 656.92 367.99 605.59 401.35 551.63 390.12 504.84 352.77 479.25 294.82 477.89 240.49 507.39 200.81 567.99 165.93 654.06 150.26 753.77 151.14 849.79 155.63 925.63 170.84 964.03 194.31Q964.03 194.32 964.03 194.32" opacity="0.66"></path><path d="M929.96 383.7C926.36 404.83 886.05 440.62 818.16 489.39 733.11 537.71 643.71 597.01 562.14 661.76 495.27 718.19 449.85 767.72 426.76 797.96 425.73 801.65 441.52 772.16 467.52 707.17 504.01 625.43 540.47 534.9 571.86 462.22 603.22 438.02 625.2 473.24 636.97 570.22 646.14 702.73 646.07 834.48 637.9 917.19 628.64 918.31 613.16 832.88 592.04 690.83 570.91 555.09 545.14 481.26 514.56 492.65 482.9 581.71 444.54 706.57 398.76 818.66 350.37 887.19 293.6 887.46 229.69 827.17 165.74 722.93 98.95 604.67 34.77 498.6 -18.91 414.21 -59.74 364.86 -80.71 346.25 -79.61 353.92 -53.14 376.16 -1.75 400.85 64.32 432.43 141.7 454.85 218.6 463.78 278.33 472.68 314.36 467.02 317.96 445.89 285.1 424.78 225.08 389.2 149.98 340.46 67.66 291.7 -4.75 230.85 -57.42 162.66 -88.57 101.35 -91.74 44.32 -69.76 4.08 -26.78 -9.87 31.71 9.13 97.83 65.82 169.99 144.2 239.69 237.41 302.68 319.67 362.38 357.98 413.05 338.78 454.9 254.79 492.91 127.22 524.48 -9.65 551.22 -106.88 576.65 -126.46 599.63 -56.94 620.76 78.76 641.88 220.83 660.15 310.57 674.55 317.64 687.65 243.1 694.51 123.37 693.12 6.34 687.88 -75.16 672 -91.45 644.85 -45.26 614.42 49.41 575.05 164.98 530.58 274.41 492.15 367.09 458.7 426.92 437.72 455.79 437.73 458.11 459.84 443.36 506.48 423.54 574.63 395.4 659.08 374.53 749.55 366.05 832.8 357.12 897.1 362.58 929.96 383.7Q929.96 383.7 929.96 383.7" opacity="0.39"></path><path d="M896.02 589.95C894.49 608.73 863.37 634.11 808.89 663.3 738.06 689.82 659.61 714.79 582.75 731.98 512.49 738.75 455.56 729.11 414.62 698.06 389.9 653.48 380.48 590.27 382.84 516.76 396.87 454.29 416.07 409.02 436.01 398.62 460.05 433.84 480 513.9 493.53 627.86 510.3 796.99 503.28 828.25 479.25 656.87 460.47 533.99 434.31 456.42 401.42 444.4 368.27 498.66 328.07 595.9 281.78 703.18 235.7 797.16 184.83 848.9 131.85 851.25 82.97 808.22 36.81 731.05 -1.82 638.78 -28.79 539.73 -41.63 452.51 -36.47 384.28 -15.07 331.6 25 298.43 81.5 279.1 144.6 270.22 212.36 265.88 275.95 260.11 323.17 256.84 350.49 247.02 352.02 228.25 324.66 209.47 275.33 182.62 212.39 150.48 140.4 120.83 72.35 91 16.18 67.34 -27.05 54.13 -49.82 56.38 -52.2 80.12 -37.15 119.41 -5.76 179.67 36.82 254.12 88.93 321.77 144.78 376.68 199.87 400.15 256.65 378.26 308.77 309.67 354.44 201.93 399.06 80.89 437.11 -27.03 468.39 -88.53 499.07 -83.76 523.95 -10 542.73 112.87 567.41 286.15 580.23 276.63 566.21 126.61 553.08 26.41 531.89 -36.81 504.05 -52.47 477.9 -22.52 449.01 45 421.5 132.09 403.52 230.21 394.38 320.38 398.88 393.89 420.81 453.88 460.41 494.46 517.41 520.22 587.34 535.57 666.07 544.76 745.31 553.66 815.5 559.88 868.64 571.17 896.02 589.94Q896.02 589.95 896.02 589.95" opacity="0.84"></path><path d="M862.02 601C840.36 633.86 739.89 639.04 608.18 602.09 479.72 549.82 388.59 454.65 341.79 366.94 333.28 367.02 344.91 483.48 353.99 689.22 370.47 843.14 366.34 823.98 333.48 622.86 300.62 436.35 242.14 432.23 168.71 578.65 102.68 755.18 39.77 816.41 5.2 753.9 8.93 610.45 65.21 462.71 169.59 357.7 277.21 271.58 364.36 219.59 386.02 186.73 321.15 153.87 208.16 143.24 98.06 172.42 12.11 220.48 -14.02 316.94 12.13 417.32 75.41 436.76 157.35 340.67 233.08 140.06 312.78 -30.44 373.12 -39.64 405.98 146.86 438.84 347.98 441.11 380.46 418.36 250.62 399.58 68.97 368.92 -12.62 348.71 30.36 365.62 161.14 426.62 307.59 536.65 416.81 670.85 510.71 797.15 568.14 862.02 601Q862.02 601 862.02 601" opacity="0.40"></path><path d="M828.03 405.77C814.81 433.94 740.11 420.41 634.28 375.47 518.43 341.25 418.81 309.32 348.3 325.53 302.22 412.52 278.25 569.45 263.32 738.77 256.88 824.53 243.38 769 215.22 588.94 187.05 419.8 146.88 376.48 104.51 460.97 70.63 615.81 50.64 734.11 59.8 769.08 93.4 731.29 163.14 643.94 258.34 555.69 343.52 459.58 406.81 392.4 420.03 364.24 369.12 336.07 279.84 349.58 185.31 396.88 96.56 436.32 45.06 479.71 33.54 480.58 49.72 408.7 90.45 260.54 137.81 85.05 192.36 -20.08 238.52 11.77 266.68 180.87 294.86 360.96 302.37 427.95 296.64 362.85 298.08 214.18 301.3 87.11 322.03 37.03 370.46 57.73 451.84 133.62 561.23 216.65 676.4 310.4 777.1 377.6 828.03 405.76Q828.03 405.77 828.03 405.77" opacity="0.51"></path><path d="M794.03 204.57C787.54 228.04 735.95 235.45 657.41 240.69 563.66 262.14 472.12 310.31 395.96 401.85 330.59 520.22 282.74 657.78 248.7 762.91 220.61 787.49 196.6 710.44 173.13 554.94 149.65 407.17 128.95 338.83 116.36 364.73 109.72 465.57 120.94 580.82 155.54 663.17 200.94 713.11 267.58 713.46 344.13 686.16 405.46 643.06 447.54 601.89 454.03 578.42 415.66 554.94 349.06 551.4 274.26 553.82 194.8 540.44 134.96 503.46 101.61 422.76 83.73 309.65 88.49 169.52 106.94 51.46 131.58 8.34 158.95 67.14 182.42 214.87 205.89 370.39 223.25 456.99 239.28 449.64 261.5 361.72 293.37 249.05 342.01 161.44 406.12 100.66 490.85 89.12 587.52 108.35 679.52 143.78 755.64 181.09 794.03 204.56Q794.03 204.57 794.03 204.57" opacity="0.15"></path><path d="M760 203.95C758.54 222.72 726.6 255.58 674.2 305.25 607.35 361.72 535.81 442.77 469.91 541.82 405.47 634.2 351.7 714.74 310.83 752.22 272.44 732.28 243.53 648.82 224.76 520.89 202.54 358.78 225.51 373.8 277.57 480.25 318.86 554.05 370.49 602.12 423.58 622.04 462.21 634.18 486.54 628.15 488 609.38 460.57 590.6 414.56 560.84 361.01 516.17 299.08 463.7 245.41 386.33 206.89 287.92 165.58 146.9 163.34 90.58 187.83 248.89 206.61 376.82 230.97 467.9 261.71 501.6 295.8 477.88 341.5 417.26 399.23 349.49 462.36 275.05 535.94 223.31 611.64 199.38 678.95 182.25 732.57 185.17 760 203.95Q760 203.95 760 203.95" opacity="0.74"></path><path d="M726.03 404.64C712.81 432.8 636.89 537.28 548.99 657.3 451.5 717.4 376.62 667 348.45 486.94 320.28 317.79 344.17 266.96 404.74 305.96 455.73 398.72 508.81 453.59 522.03 425.43 471.12 397.26 392.98 291.39 332.87 161.71 272.15 85.79 252.71 113.79 280.88 282.94 309.04 463 379.48 536.23 477.12 513.05 574.15 429.95 675.12 376.47 726.03 404.64Q726.03 404.64 726.03 404.64" opacity="0.51"></path><path d="M692.03 600.51C660.27 638.07 531.14 671.01 493.59 452.93 456.03 253.28 524.27 252.87 556.03 215.31 475.93 177.76 385.38 117.28 422.94 316.93 460.49 535.01 611.93 562.96 692.03 600.51Q692.03 600.51 692.03 600.51" opacity="0.80"></path></g></svg>